<svg version="1" xmlns="http://www.w3.org/2000/svg" width="333.333" height="333.333" viewBox="0 0 250.000000 250.000000"><path d="M0 125v125h250V0H0v125zM132.6 15.7c3.2 1.1 6.6 3.4 10 6.8 4.8 4.8 5.4 6 8.8 17.1 2 6.5 5.6 18.2 8 25.9 2.4 7.7 5.6 18 7.1 23 1.5 4.9 3.9 13 5.5 18 1.5 4.9 4 13 5.4 18 1.5 4.9 3.3 10.8 4.1 13 .7 2.2 2.7 8.9 4.5 15 4.6 16 5.7 18.2 11.5 22.5 10.8 8 15.5 15.6 15.5 25.2 0 14-8.3 26.7-19.9 30.6-2.2.8-11.6 1.2-27 1.2-24.6-.1-31.4-.9-37.8-4.6-3.2-1.9-3.4-1.9-6.5 0-6.5 3.7-13.3 4.5-37.9 4.6-15.4 0-24.8-.4-27-1.2-11.6-3.9-19.9-16.6-19.9-30.6 0-9.6 4.7-17.2 15.5-25.2 5.8-4.3 6.9-6.5 11.5-22.5 1.8-6.1 3.8-12.8 4.5-15 .8-2.2 2.6-8.1 4.1-13 1.4-5 3.9-13.1 5.4-18 1.6-5 4-13.1 5.5-18 1.5-5 4.7-15.3 7.1-23 2.4-7.7 6-19.4 8-25.9 3.4-11.1 4-12.3 8.8-17.1 7.9-7.9 15.7-10 25.2-6.8z"/><path d="M122 21c-9.6 2.8-14 8-18.1 21.3-1.7 5.6-5.9 19.4-9.4 30.7-7 22.8-18.2 59.5-25.2 82.5-5.5 18.1-6.1 19.4-11.5 23.6-12.1 9.2-15.2 14.2-14.6 22.9.6 8.4 4.9 16.5 10.6 20.1l4.6 2.9h25.5c15.1 0 27.2-.4 29.5-1.1 2.3-.6 5.3-2.7 7.7-5.2l3.9-4.2 3.9 4.2c2.4 2.5 5.4 4.6 7.7 5.2 2.3.7 14.4 1.1 29.5 1.1h25.5l4.6-2.9c5.7-3.6 10-11.7 10.6-20.1.6-8.7-2.5-13.7-14.6-22.9-5.4-4.2-6-5.5-11.5-23.6-7-23-18.2-59.7-25.2-82.5-3.5-11.3-7.7-25.1-9.4-30.7-3.4-11.2-6.7-16.1-13-19.2-4.8-2.4-8.1-3-11.1-2.1zm9.1 12.3c3.9 2.6 5.6 5.7 8 14.7.9 3.6 5.6 19.1 10.4 34.5 4.8 15.4 9.3 30 10 32.5 6.3 22.1 20.2 64.7 22.1 68 1.1 1.7 4.5 4.7 7.7 6.7 6.9 4.2 9.1 7.9 8.4 14-.6 5.3-2.7 8.7-7 11-2.8 1.6-6.1 1.8-26.4 1.8-21.8 0-23.3-.1-26-2.1-1.5-1.1-3.6-3.6-4.5-5.5-3.8-7.3-1.3-14.8 6.4-19 4.9-2.8 5.5-4.4 3.8-12.3-1.9-9.1-1.5-8.9-19-8.9s-17.1-.2-19 8.9c-1.7 7.9-1.1 9.5 3.8 12.3 7.7 4.2 10.2 11.7 6.4 19-.9 1.9-3 4.4-4.5 5.5-2.7 2-4.2 2.1-26 2.1-20.3 0-23.6-.2-26.4-1.8-4.3-2.3-6.4-5.7-7-11-.7-6.1 1.5-9.8 8.4-14 3.2-2 6.6-5 7.7-6.7 1.9-3.3 15.8-45.9 22.1-68 .7-2.5 5.2-17.1 10-32.5 4.8-15.4 9.5-30.9 10.4-34.5 1-3.6 2.4-7.8 3.2-9.5 1.8-3.7 7.3-7.5 10.9-7.5 1.5 0 4.2 1 6.1 2.3z"/><path d="M123.2 107.9c-2.4 1.5-10 31.7-8.4 33.3 1.2 1.2 19.2 1.2 20.4 0 .5-.5.1-4.4-1.1-9.8-4.3-18.8-6.3-24.4-9.1-24.4-.3 0-1.1.4-1.8.9z"/></svg>